<svg xmlns="http://www.w3.org/2000/svg" viewBox="0 0 420 250" role="img" aria-labelledby="title desc">
  <title id="title">SNS発信を連想するアイコン</title>
  <desc id="desc">スマホ投稿、写真、ハート、コメント、人のつながりを組み合わせた手描き風のSNS発信アイコン。</desc>
  <rect width="420" height="250" rx="28" fill="#fffaf2"/>
  <path d="M53 37c45-9 91-8 136 0M284 214c39 6 74 2 107-8" fill="none" stroke="#d7d0c6" stroke-width="4" stroke-linecap="round"/>
  <g stroke="#3d3935" stroke-width="6" stroke-linecap="round" stroke-linejoin="round">
    <rect x="148" y="34" width="124" height="182" rx="28" fill="#fff"/>
    <rect x="170" y="69" width="80" height="68" rx="12" fill="#dceef8"/>
    <path d="M174 129l24-28 19 20 16-17 18 25z" fill="#39a96b"/>
    <circle cx="232" cy="90" r="8" fill="#f7c948"/>
    <path d="M172 158h60M172 176h75M172 194h44" fill="none" stroke-width="4"/>
    <path d="M105 66c-13-18-43-4-31 19 7 13 23 25 31 32 9-7 25-19 32-32 12-23-19-37-32-19z" fill="#d33d52"/>
    <path d="M302 75h52c13 0 21 8 21 20s-8 20-21 20h-21l-25 19 7-19h-13c-13 0-21-8-21-20s8-20 21-20z" fill="#ffe173"/>
    <path d="M316 95h34" fill="none" stroke-width="4"/>
    <circle cx="83" cy="178" r="20" fill="#f3a74f"/>
    <circle cx="337" cy="178" r="20" fill="#2ba6c8"/>
    <circle cx="210" cy="225" r="17" fill="#39a96b"/>
    <path d="M103 173c28-20 54-31 82-35M236 139c33 8 62 20 84 36M102 190c32 20 63 31 91 34M227 224c33-4 63-15 94-35" fill="none" stroke-width="4"/>
    <path d="M66 206c9-15 25-20 41-11M320 206c10-15 27-19 42-8M193 241c9-12 26-12 35 0" fill="none" stroke-width="5"/>
  </g>
  <circle cx="210" cy="125" r="100" fill="none" stroke="#2ba6c8" stroke-width="3" stroke-dasharray="9 13" opacity=".22"/>
</svg>
