<svg xmlns="http://www.w3.org/2000/svg" viewBox="0 0 420 250" role="img" aria-labelledby="title desc">
  <title id="title">チラシづくりを連想するアイコン</title>
  <desc id="desc">付箋、紙面、色見本を組み合わせた手描き風のチラシづくりアイコン。</desc>
  <rect width="420" height="250" rx="28" fill="#fffaf2"/>
  <path d="M58 34c45-9 93-9 139 0M276 218c36 5 72 2 109-8" fill="none" stroke="#d7d0c6" stroke-width="4" stroke-linecap="round"/>
  <g stroke="#3d3935" stroke-width="6" stroke-linecap="round" stroke-linejoin="round">
    <rect x="128" y="35" width="165" height="180" rx="24" fill="#fff"/>
    <path d="M153 72h78M153 94h56M153 169h85" fill="none" stroke-width="4"/>
    <rect x="153" y="112" width="55" height="42" rx="8" fill="#ffe173"/>
    <path d="M223 145l26-32 26 36z" fill="#34a6c8"/>
    <circle cx="259" cy="96" r="17" fill="#d33d52"/>
    <rect x="72" y="72" width="70" height="54" rx="10" fill="#f3a74f" transform="rotate(-8 107 99)"/>
    <path d="M92 95h35M94 111h24" fill="none" stroke-width="4"/>
    <rect x="278" y="61" width="60" height="48" rx="10" fill="#f7c948" transform="rotate(8 308 85)"/>
    <path d="M294 82h28M296 96h18" fill="none" stroke-width="4"/>
    <path d="M94 170c27-24 54-36 83-38" fill="none" stroke="#39a96b" stroke-width="10"/>
    <path d="M109 195c48-20 101-22 160-7" fill="none" stroke="#d33d52" stroke-width="9"/>
    <path d="M303 154l15-25 15 25 28 6-20 20 6 28-29-14-28 14 6-28-20-20z" fill="#f7c948"/>
  </g>
  <circle cx="210" cy="125" r="100" fill="none" stroke="#d33d52" stroke-width="3" stroke-dasharray="9 13" opacity=".22"/>
</svg>
