<svg xmlns="http://www.w3.org/2000/svg" viewBox="0 0 420 250" role="img" aria-labelledby="title desc">
  <title id="title">Workshop illustration for sharing activities on social media</title>
  <desc id="desc">Hand drawn style smartphone post, activity photo, hearts, comments, and connected people.</desc>
  <defs>
    <filter id="rough">
      <feTurbulence type="fractalNoise" baseFrequency="0.019" numOctaves="2" seed="19"/>
      <feDisplacementMap in="SourceGraphic" scale="1.15"/>
    </filter>
  </defs>
  <rect width="420" height="250" rx="28" fill="#fffaf2"/>
  <g filter="url(#rough)" stroke="#3d3935" stroke-width="5" stroke-linecap="round" stroke-linejoin="round">
    <rect x="145" y="37" width="130" height="178" rx="23" fill="#ffffff"/>
    <rect x="165" y="69" width="90" height="70" rx="10" fill="#dceef8"/>
    <path d="M170 132l28-30 18 19 15-17 22 28" fill="#39a96b"/>
    <circle cx="230" cy="89" r="8" fill="#f7c948"/>
    <path d="M168 156h55M168 172h70M168 188h42" fill="none" stroke-width="3"/>
    <path d="M112 78c-12-18-43-4-31 18 6 11 22 22 31 29 9-7 25-18 31-29 12-22-19-36-31-18z" fill="#d33d52"/>
    <path d="M304 70h50c11 0 18 8 18 18s-7 18-18 18h-21l-20 16 5-16h-14c-11 0-18-8-18-18s7-18 18-18z" fill="#ffe173"/>
    <path d="M317 88h34" fill="none" stroke-width="3"/>
    <circle cx="77" cy="175" r="20" fill="#f3a74f"/>
    <circle cx="342" cy="178" r="20" fill="#2ba6c8"/>
    <circle cx="210" cy="225" r="18" fill="#39a96b"/>
    <path d="M93 170c31-22 56-32 92-32M235 139c37 8 67 19 91 37M90 188c38 22 73 33 103 36M228 224c34-4 64-15 95-35" fill="none" stroke-width="4"/>
    <path d="M61 205c8-17 25-24 44-12M327 207c9-16 28-20 42-8M193 242c9-13 26-13 36 0" fill="none"/>
    <path d="M322 134c11 3 22 2 34-3" fill="none" stroke="#d33d52" stroke-width="7"/>
  </g>
  <g fill="none" stroke="#3d3935" stroke-width="4" stroke-linecap="round" opacity=".22">
    <path d="M31 38c45-8 91-7 134 2"/>
    <path d="M291 221c37 5 70 2 101-9"/>
  </g>
</svg>
