<svg xmlns="http://www.w3.org/2000/svg" viewBox="0 0 420 250" role="img" aria-labelledby="title desc">
  <title id="title">Workshop illustration for making a flyer</title>
  <desc id="desc">Hand drawn style desk scene with sticky notes, notebook, laptop flyer editor, and colorful shapes.</desc>
  <defs>
    <filter id="rough">
      <feTurbulence type="fractalNoise" baseFrequency="0.018" numOctaves="2" seed="7"/>
      <feDisplacementMap in="SourceGraphic" scale="1.2"/>
    </filter>
  </defs>
  <rect width="420" height="250" rx="28" fill="#fffaf2"/>
  <g filter="url(#rough)" stroke="#3d3935" stroke-width="5" stroke-linecap="round" stroke-linejoin="round">
    <path d="M48 188c62 18 221 23 323-5" fill="none" opacity=".13"/>
    <rect x="126" y="58" width="176" height="112" rx="12" fill="#f8fbff"/>
    <path d="M143 150h142M178 171h73" fill="none"/>
    <rect x="152" y="82" width="64" height="78" rx="6" fill="#fff2b8"/>
    <path d="M165 103h36M165 120h28M165 137h43" fill="none" stroke-width="3"/>
    <circle cx="247" cy="98" r="16" fill="#d33d52"/>
    <path d="M235 132l26-28 25 36z" fill="#2ba6c8"/>
    <path d="M314 68l48-10 8 43-50 9z" fill="#ffe173"/>
    <path d="M327 83h28M331 96h22" fill="none" stroke-width="3"/>
    <path d="M49 92l61-13 12 62-63 14z" fill="#f3a74f"/>
    <path d="M66 111h34M69 128h25" fill="none" stroke-width="3"/>
    <path d="M65 177c8-31 17-51 34-72" fill="none" stroke="#39a96b" stroke-width="8"/>
    <path d="M92 187c10-13 26-20 45-20h37" fill="none" stroke="#d33d52" stroke-width="7"/>
    <rect x="236" y="182" width="73" height="17" rx="8" fill="#39a96b"/>
    <path d="M327 153l13-22 14 22 24 4-17 16 5 24-24-12-22 12 4-24-17-17z" fill="#f7c948"/>
  </g>
  <g fill="none" stroke="#3d3935" stroke-width="4" stroke-linecap="round" opacity=".22">
    <path d="M28 32c45-8 92-7 137 0"/>
    <path d="M278 215c39 5 76 3 112-6"/>
  </g>
</svg>
